HIERARCHY
ROOT hip
{
  OFFSET 0 0 0
  CHANNELS 6 Xposition Yposition Zposition Zrotation Yrotation Xrotation
  JOINT abdomen
  {
    OFFSET 0 20.6881 -0.73152
    CHANNELS 3 Zrotation Xrotation Yrotation
    JOINT chest
    {
      OFFSET 0 11.7043 -0.48768
      CHANNELS 3 Zrotation Xrotation Yrotation
      JOINT neck
      {
        OFFSET 0 22.1894 -2.19456
        CHANNELS 3 Zrotation Xrotation Yrotation
        JOINT head
        {
          OFFSET -0.24384 7.07133 1.2192
          CHANNELS 3 Zrotation Xrotation Yrotation
          JOINT leftEye
          {
            OFFSET 4.14528 8.04674 8.04672
            CHANNELS 3 Zrotation Xrotation Yrotation
            End Site
            {
              OFFSET 1 0 0
            }
          }
          JOINT rightEye
          {
            OFFSET -3.6576 8.04674 8.04672
            CHANNELS 3 Zrotation Xrotation Yrotation
            End Site
            {
              OFFSET 1 0 0
            }
          }
        }
      }
      JOINT rCollar
      {
        OFFSET -2.68224 19.2634 -4.8768
        CHANNELS 3 Zrotation Xrotation Yrotation
        JOINT rShldr
        {
          OFFSET -8.77824 -1.95073 1.46304
          CHANNELS 3 Zrotation Xrotation Yrotation
          JOINT rForeArm
          {
            OFFSET -28.1742 -1.7115 0.48768
            CHANNELS 3 Zrotation Xrotation Yrotation
            JOINT rHand
            {
              OFFSET -22.5879 0.773209 7.07136
              CHANNELS 3 Zrotation Xrotation Yrotation
              JOINT rThumb1
              {
                OFFSET -1.2192 -0.487915 3.41376
                CHANNELS 3 Zrotation Xrotation Yrotation
                JOINT rThumb2
                {
                  OFFSET -3.37035 -0.52449 3.41376
                  CHANNELS 3 Zrotation Xrotation Yrotation
                  End Site
                  {
                    OFFSET -1.78271 -1.18214 1.43049
                  }
                }
              }
              JOINT rIndex1
              {
                OFFSET -7.75947 0.938293 5.60832
                CHANNELS 3 Zrotation Xrotation Yrotation
                JOINT rIndex2
                {
                  OFFSET -2.54057 -0.884171 1.56538
                  CHANNELS 3 Zrotation Xrotation Yrotation
                  End Site
                  {
                    OFFSET -1.62519 -0.234802 1.16502
                  }
                }
              }
              JOINT rMid1
              {
                OFFSET -8.24714 1.18213 3.41376
                CHANNELS 3 Zrotation Xrotation Yrotation
                JOINT rMid2
                {
                  OFFSET -3.10165 -0.590103 1.0647
                  CHANNELS 3 Zrotation Xrotation Yrotation
                  End Site
                  {
                    OFFSET -2.48547 -0.328903 0.83742
                  }
                }
              }
              JOINT rRing1
              {
                OFFSET -8.82822 0.546677 1.51678
                CHANNELS 3 Zrotation Xrotation Yrotation
                JOINT rRing2
                {
                  OFFSET -2.60934 -0.819778 -0.0198488
                  CHANNELS 3 Zrotation Xrotation Yrotation
                  End Site
                  {
                    OFFSET -2.33842 -0.294052 0.168128
                  }
                }
              }
              JOINT rPinky1
              {
                OFFSET -8.27202 -0.0477905 -0.4584
                CHANNELS 3 Zrotation Xrotation Yrotation
                JOINT rPinky2
                {
                  OFFSET -1.82734 -0.647385 -0.700984
                  CHANNELS 3 Zrotation Xrotation Yrotation
                  End Site
                  {
                    OFFSET -1.69225 -0.51767 -0.607171
                  }
                }
              }
            }
          }
        }
      }
      JOINT lCollar
      {
        OFFSET 2.68224 19.2634 -4.8768
        CHANNELS 3 Zrotation Xrotation Yrotation
        JOINT lShldr
        {
          OFFSET 8.77824 -1.95073 1.46304
          CHANNELS 3 Zrotation Xrotation Yrotation
          JOINT lForeArm
          {
            OFFSET 28.1742 -1.7115 0.48768
            CHANNELS 3 Zrotation Xrotation Yrotation
            JOINT lHand
            {
              OFFSET 22.5879 0.773209 7.07136
              CHANNELS 3 Zrotation Xrotation Yrotation
              JOINT lThumb1
              {
                OFFSET 1.2192 -0.487915 3.41376
                CHANNELS 3 Zrotation Xrotation Yrotation
                JOINT lThumb2
                {
                  OFFSET 3.37035 -0.52449 3.41376
                  CHANNELS 3 Zrotation Xrotation Yrotation
                  End Site
                  {
                    OFFSET 1.78271 -1.18214 1.43049
                  }
                }
              }
              JOINT lIndex1
              {
                OFFSET 7.75947 0.938293 5.60832
                CHANNELS 3 Zrotation Xrotation Yrotation
                JOINT lIndex2
                {
                  OFFSET 2.54057 -0.884171 1.56538
                  CHANNELS 3 Zrotation Xrotation Yrotation
                  End Site
                  {
                    OFFSET 1.62519 -0.234802 1.16502
                  }
                }
              }
              JOINT lMid1
              {
                OFFSET 8.24714 1.18213 3.41376
                CHANNELS 3 Zrotation Xrotation Yrotation
                JOINT lMid2
                {
                  OFFSET 3.10165 -0.590103 1.0647
                  CHANNELS 3 Zrotation Xrotation Yrotation
                  End Site
                  {
                    OFFSET 2.48547 -0.328903 0.83742
                  }
                }
              }
              JOINT lRing1
              {
                OFFSET 8.82822 0.546677 1.51678
                CHANNELS 3 Zrotation Xrotation Yrotation
                JOINT lRing2
                {
                  OFFSET 2.60934 -0.819778 -0.0198488
                  CHANNELS 3 Zrotation Xrotation Yrotation
                  End Site
                  {
                    OFFSET 2.33842 -0.294052 0.168128
                  }
                }
              }
              JOINT lPinky1
              {
                OFFSET 8.27202 -0.0477905 -0.4584
                CHANNELS 3 Zrotation Xrotation Yrotation
                JOINT lPinky2
                {
                  OFFSET 1.82734 -0.647385 -0.700984
                  CHANNELS 3 Zrotation Xrotation Yrotation
                  End Site
                  {
                    OFFSET 1.69225 -0.51767 -0.607171
                  }
                }
              }
            }
          }
        }
      }
    }
  }
  JOINT rButtock
  {
    OFFSET -8.77824 4.35084 1.2192
    CHANNELS 3 Zrotation Xrotation Yrotation
    JOINT rThigh
    {
      OFFSET 0 -1.70687 -2.19456
      CHANNELS 3 Zrotation Xrotation Yrotation
      JOINT rShin
      {
        OFFSET 0 -36.8199 0.73152
        CHANNELS 3 Zrotation Xrotation Yrotation
        JOINT rFoot
        {
          OFFSET 0.73152 -45.1104 -5.12064
          CHANNELS 3 Zrotation Xrotation Yrotation
          End Site
          {
            OFFSET -1.1221 -3.69964 12.103
          }
        }
      }
    }
  }
  JOINT lButtock
  {
    OFFSET 8.77824 4.35084 1.2192
    CHANNELS 3 Zrotation Xrotation Yrotation
    JOINT lThigh
    {
      OFFSET 0 -1.70687 -2.19456
      CHANNELS 3 Zrotation Xrotation Yrotation
      JOINT lShin
      {
        OFFSET 0 -36.8199 0.73152
        CHANNELS 3 Zrotation Xrotation Yrotation
        JOINT lFoot
        {
          OFFSET -0.73152 -45.1104 -5.12064
          CHANNELS 3 Zrotation Xrotation Yrotation
          End Site
          {
            OFFSET 1.1221 -3.69964 12.103
          }
        }
      }
    }
  }
}
MOTION
Frames:	7
Frame Time:	0.00833333
8.82251 87.152 -18.9074 0.0 -0.0 0.0 -0.0 -0.0 -0.0 -0.0 0.0 -0.0 1.681211 -0.191291 9.638157 -1.625502 0.469952 -9.628684 -0.0 0.0 -0.0 -0.0 0.0 -0.0 -13.015985 41.250126 14.798846 9.157508 75.656316 0.712979 -59.267983 -77.72048 -69.03341 12.244242 -33.171275 4.843983 0.567845 -0.561452 -0.084526 -136.772867 -39.052007 118.838948 -151.353117 -17.158427 121.133109 -165.44822 -43.349897 117.022573 -39.289155 53.36602 32.877985 -5.072995 21.606282 1.575305 0.000474 0.063807 0.020046 -165.724551 -0.758009 171.882218 -86.000836 -50.498128 -84.371009 -20.711922 -41.04084 -22.113677 155.460052 -3.227798 -161.777534 0.652215 44.090615 -27.027874 -97.622402 81.023371 96.269842 16.775487 44.114218 -5.226763 -51.059793 -41.203951 -12.856726 46.213531 31.220683 -17.306036 -12.216524 -21.784719 5.120188 -4.139626 -0.909524 -3.513133 -44.047274 -75.295086 -17.450054 86.275095 61.048843 -77.361374 0.007677 3.559155 -1.118768 151.671297 61.065044 -155.360906 139.224096 -4.39683 136.390672 -34.180819 74.417713 -2.822271 -0.0 0.0 0.0 -0.0 -2.27635 -180.0 -4.055723 -2.993391 -143.675094 3.997592 -5.411145 -39.432262 -0.0 0.0 0.0 -0.0 -2.27635 -180.0 3.818269 -2.872352 145.985039 151.873039 -19.309434 -50.695909
8.07989 86.7823 -18.2552 -0.0 0.0 0.0 -0.0 -4.771896 -180.0 -0.0 -4.771896 -180.0 -3.941986 17.932259 -132.771391 10.667824 15.013811 131.983833 0.0 0.0 0.0 0.0 0.0 0.0 -80.1661 68.371792 83.260848 16.928347 14.037338 -0.169172 101.407814 79.95943 -130.229249 -179.265057 14.755459 145.138372 -171.653675 -9.336187 89.949478 -18.394033 -41.667067 3.636061 -145.338335 -6.264511 118.677783 -48.757493 59.959067 41.45636 -164.637861 -19.283648 144.733631 -161.191818 -7.671328 142.599051 -75.673382 -72.116249 -92.828895 -146.95951 18.044215 163.143509 -152.200278 37.330087 -147.582714 -8.919113 -23.963971 -13.654778 150.168677 21.535282 -155.275413 -20.616033 1.874923 -11.402101 66.567776 -74.724176 85.482844 -38.437325 -61.505603 -25.964097 166.631339 -4.304864 -89.77151 37.349076 -24.092271 -8.458969 -15.558612 -27.950605 5.75049 156.513725 1.558724 -104.123183 -68.983989 -80.15399 -40.578188 -14.657157 -29.612844 -2.313464 145.099706 -1.521107 178.650165 -20.647783 -0.553065 8.783065 162.366757 72.063987 150.899593 166.249105 58.881675 143.364468 -0.0 0.0 -0.0 -0.0 -0.0 -0.0 -3.117632 1.327455 -29.85905 155.17461 -24.403301 -25.601023 -0.0 0.0 -0.0 -0.0 -0.0 -0.0 -4.304493 0.86717 -39.030537 40.54651 25.94778 16.013097
7.13928 86.3418 -17.6052 -0.0 -0.0 -0.0 -0.0 -0.0 -0.0 0.0 0.0 -0.0 -6.906697 5.093511 -50.165498 8.325947 2.056425 50.323376 -0.0 0.0 -0.0 -0.0 0.0 -0.0 -155.504155 -3.514523 161.838528 -77.5647 69.065047 98.229309 -161.958107 -0.410559 156.482578 87.45434 -70.754334 72.058039 -78.030619 38.689342 42.41267 168.686713 -49.549356 73.413282 174.382035 -63.05997 113.272685 -155.157605 -20.996858 110.745105 -36.036059 51.723116 29.832321 -167.446161 -15.392401 146.812852 -145.118942 0.185529 -179.186624 -45.330777 87.634708 68.87754 -1.203484 -3.047547 -1.116064 -149.187304 9.863856 -143.387522 159.220516 -48.028485 -170.415257 -2.863803 15.761291 -22.442298 174.497398 75.611931 -177.588277 4.068627 12.939857 -0.016734 -71.831195 -48.263725 -25.791675 12.703486 -38.80789 29.817847 117.258193 28.443591 -99.152717 13.187675 45.153317 -1.085572 160.09819 -4.901163 -142.968881 -131.284617 -77.142872 -97.327687 145.121954 1.975391 179.748922 -22.29352 29.101274 6.124756 -1.482059 4.003653 -1.360876 -8.636733 28.628157 -6.367543 -180.0 75.749642 -0.0 -180.0 75.749642 -0.0 3.093813 0.300867 27.366401 -177.517899 -38.148311 39.844119 -180.0 75.749642 -0.0 -180.0 75.749642 -0.0 2.74577 11.919568 137.880989 -129.992023 -15.548031 140.781608
5.9436 86.5212 -16.8178 -0.0 -0.0 -0.0 -0.0 -0.0 -0.0 0.0 0.0 -0.0 -0.352604 0.077114 -2.052654 0.35514 -0.064434 2.053091 0.0 -0.0 -0.0 0.0 -0.0 -0.0 -143.620413 38.233348 148.080496 -153.748773 -14.787283 171.174154 -4.625952 40.004704 4.174796 2.283037 -7.197884 0.390594 -175.19822 -12.846093 89.807639 -138.379374 11.424807 70.515204 -19.170572 24.114561 13.380841 -86.100262 53.565035 57.088093 23.903801 -61.333833 1.399383 -38.644005 53.046776 32.380564 -132.481743 54.102976 155.533585 33.467127 73.950734 -21.010776 -125.485307 -28.274773 -123.238051 5.544258 1.766118 0.726318 80.1661 68.371792 -83.260848 -16.926784 14.142456 0.162407 -100.342487 80.006959 129.157281 179.292837 14.670117 -145.142504 4.166296 4.057514 -0.783763 125.674817 -21.128066 -111.128875 173.762554 -52.872945 -119.8247 -109.440487 -64.759639 -44.116115 151.476684 17.84174 -137.538824 38.587854 59.612234 -35.353063 0.006679 3.473835 -1.091901 15.408923 62.122796 -17.343909 -5.663198 16.872151 -5.087837 82.570644 -53.750487 79.452632 -180.0 75.749642 -0.0 -180.0 75.749642 -0.0 3.819913 0.604099 34.22701 -65.382705 26.215721 4.621567 -180.0 75.749642 -0.0 -180.0 75.749642 -0.0 2.029982 12.329736 145.110086 94.068378 56.51173 177.031843
4.5076 86.9089 -16.0532 -0.0 -0.0 -0.0 -0.0 -0.0 -0.0 0.0 0.0 -0.0 -0.352604 0.077114 -2.052654 0.35514 -0.064434 2.053091 0.0 -0.0 -0.0 0.0 -0.0 -0.0 -143.620413 38.233348 148.080496 -153.748773 -14.787283 171.174154 -86.49262 74.22629 77.060698 26.054938 -52.856932 15.159137 55.518315 -43.150421 15.432212 -150.881639 -29.231263 128.852396 -166.821797 -43.973781 122.061691 131.582636 -66.81048 63.314944 78.537123 -80.919176 49.688177 -171.913946 -25.88682 140.685312 0.000171 0.022623 0.007107 1.204242 -26.584135 -3.118622 26.973563 80.122588 10.137824 -27.659232 -39.285148 -28.257806 80.1661 68.371792 -83.260848 -16.926784 14.142456 0.162407 -177.674118 -60.28853 -174.327977 5.710246 17.950288 -0.282605 170.594228 -8.27758 -89.948904 77.739178 5.193586 -26.094512 19.170572 24.114561 -13.380841 173.463412 -14.451173 -115.36543 -0.541241 -1.589941 0.294737 -2.104675 -6.365683 0.6323 145.121957 1.974539 179.748654 -19.004132 -12.916177 11.167472 135.068796 -13.384184 132.47003 147.195687 19.793149 144.844105 -180.0 75.749642 -0.0 -180.0 75.749642 -0.0 2.512346 0.127625 22.075435 51.774727 -31.627549 -26.452138 -180.0 75.749642 -0.0 -180.0 75.749642 -0.0 5.634217 7.031168 86.353135 -5.046742 -26.781648 -95.938589
2.98048 87.1957 -15.3738 -0.0 -0.0 -0.0 -0.0 -0.0 -0.0 0.0 0.0 -0.0 -7.839959 7.474454 -64.637578 10.095103 3.902534 64.805654 0.0 0.0 0.0 0.0 0.0 0.0 -143.620413 38.233348 148.080496 -155.393326 -26.092474 171.292274 175.725133 -19.899605 142.502351 176.30252 0.714692 145.256604 -173.770775 -11.439911 89.891324 145.674106 -47.766852 99.245312 2.325555 -3.867927 -1.259147 1.642654 -1.65187 0.541438 -160.889433 -7.337573 143.345306 168.723692 -65.382915 131.000083 0.004873 1.771387 0.556475 -164.180556 -64.597792 -177.763583 -157.329919 57.246404 -150.511839 -162.661994 53.957811 -144.344386 80.1661 68.371792 -83.260848 -16.89865 15.899113 0.048397 8.082712 9.707635 25.686646 -139.772246 -60.371683 -121.18212 -178.740285 -18.647484 -89.059934 146.823768 10.275747 -78.718883 1.564766 2.494907 -0.906783 170.676262 -9.776968 -110.066519 -23.903801 -61.333833 -1.399383 29.129677 47.312486 -24.007499 -0.004673 0.918035 -0.288384 165.823428 -1.233446 -172.102989 -19.285428 66.825144 -13.089181 5.861812 -13.308479 8.036448 -180.0 75.749642 -0.0 -180.0 75.749642 -0.0 2.512346 0.127625 22.075435 -102.02975 6.057653 28.233556 -180.0 75.749642 -0.0 -180.0 75.749642 -0.0 5.634217 7.031168 86.353135 -5.051219 -27.111604 -96.041055
1.34463 86.8254 -15.0025 -0.0 -0.0 -0.0 -0.0 0.0 -0.0 0.0 -0.0 0.0 11.462299 6.42193 81.028585 -8.138017 10.323041 -80.937438 -0.0 0.0 -0.0 -0.0 0.0 -0.0 -142.973735 39.431617 147.390037 21.143811 1.283524 7.278457 6.006473 31.517552 -35.091487 171.800849 -13.224621 144.281472 -78.030619 38.689342 42.41267 -130.535229 -22.437614 81.676859 -148.886119 -12.609784 120.244776 -142.868993 3.213845 120.191694 -36.036059 51.723116 29.832321 -167.81997 -16.778355 146.888827 -78.571366 -72.041604 -95.867435 -153.105419 -17.041017 167.904643 -10.675082 -21.645148 -10.116939 -82.630287 -55.393538 -80.461412 150.168677 21.535282 -155.275413 -16.946343 17.365863 -12.993539 69.59806 -75.273646 93.081658 -68.030933 -69.603956 -53.546703 121.36458 30.329582 -71.957921 -41.765795 -43.722766 -30.950438 0.327682 0.529888 -0.186114 168.751808 -7.261119 -109.557821 82.840589 61.110826 -74.532293 -76.068691 -80.762952 -47.395922 0.014868 -1.323148 0.415899 165.628025 -0.999628 -171.652307 157.329919 57.246404 150.511839 146.038236 9.663499 139.724007 -180.0 75.749642 -0.0 -180.0 75.749642 -0.0 7.244654 4.663875 81.763736 -6.192376 -19.936713 -90.004406 -180.0 75.749642 -0.0 -180.0 75.749642 -0.0 -7.510295 6.347106 -96.640747 1.918336 28.57556 91.437799
